<?xml version="1.0" encoding="UTF-8"?>
<svg id="Layer_1" xmlns="http://www.w3.org/2000/svg" version="1.1" viewBox="0 0 84.2 116.16">
  <!-- Generator: Adobe Illustrator 30.2.1, SVG Export Plug-In . SVG Version: 2.1.1 Build 1)  -->
  <defs>
    <style>
      .st0 {
        fill: #a8843a;
      }
    </style>
  </defs>
  <g>
    <path class="st0" d="M25,77.17c-7.52-6.77-10.61-17.67-6.93-27.76,3.67-10.09,13.04-16.46,23.16-16.81l5.91-16.23C28.14,14.06,9.37,25,2.55,43.75c-6.82,18.75.52,39.19,16.55,49.64l5.91-16.23Z"/>
    <path class="st0" d="M65.15,22.94l-5.91,16.23c7.49,6.77,10.55,17.65,6.89,27.72-3.67,10.07-13,16.44-23.1,16.81l-5.91,16.23c18.97,2.27,37.71-8.66,44.53-27.4,6.82-18.73-.5-39.15-16.5-49.61Z"/>
  </g>
  <g>
    <path class="st0" d="M50.85,34.12c2.49.9,4.75,2.15,6.75,3.68l10.06-27.63c1.43-3.93-.6-8.28-4.53-9.71-3.93-1.43-8.28.6-9.71,4.53l-10.05,27.61c2.49.12,5.01.62,7.48,1.52Z"/>
    <path class="st0" d="M33.35,82.18c-2.47-.9-4.72-2.14-6.71-3.65l-10,27.46c-1.43,3.93.6,8.28,4.53,9.71,3.93,1.43,8.28-.6,9.71-4.53l10-27.48c-2.51-.12-5.04-.62-7.53-1.52Z"/>
  </g>
</svg>