<?xml version="1.0" encoding="UTF-8"?>
<svg id="Layer_1" data-name="Layer 1" xmlns="http://www.w3.org/2000/svg" viewBox="0 0 432.14 137.21">
  <defs>
    <style>
      .cls-1 {
        fill: #ffffff;
      }

      .cls-2 {
        fill: #ffffff80;
      }
    </style>
  </defs>
  <path class="cls-1" d="M49.93,98.84l-15.11-22.27h-16.68v22.27H0V18.89h33.92c20.93,0,34.03,11.08,34.03,29.01,0,11.99-5.93,20.79-16.12,25.24l17.58,25.7h-19.48ZM32.91,33.96h-14.78v27.87h14.78c11.08,0,16.68-5.25,16.68-13.93s-5.6-13.93-16.68-13.93Z"/>
  <path class="cls-1" d="M74.28,18.89h18.13v79.95h-18.13V18.89Z"/>
  <path class="cls-1" d="M172.71,98.84l-.11-47.97-23.06,39.52h-8.17l-22.95-38.49v46.94h-17.01V18.89h15l29.33,49.68,28.88-49.68h14.89l.22,79.95h-17.01Z"/>
  <path class="cls-1" d="M192.55,90.96l6.16-13.93c6.6,4.91,16.45,8.34,25.86,8.34,10.75,0,15.11-3.65,15.11-8.57,0-14.96-45.56-4.68-45.56-34.38,0-13.59,10.75-24.9,33.02-24.9,9.85,0,19.93,2.4,27.2,7.08l-5.6,14.05c-7.28-4.23-14.78-6.28-21.72-6.28-10.75,0-14.89,4.11-14.89,9.14,0,14.73,45.56,4.57,45.56,33.92,0,13.36-10.86,24.78-33.25,24.78-12.43,0-24.96-3.77-31.9-9.25Z"/>
  <path class="cls-1" d="M415.12,98.84l-.11-47.97-23.06,39.52h-8.17l-22.95-38.49v46.94h-17.02V18.89h15l29.33,49.68,28.88-49.68h14.89l.22,79.95h-17.02Z"/>
  <g>
    <path class="cls-1" d="M282.35,77.17c-7.52-6.77-10.61-17.67-6.93-27.76,3.67-10.09,13.04-16.46,23.16-16.81l5.91-16.23c-18.99-2.3-37.76,8.64-44.58,27.39-6.82,18.75.52,39.19,16.55,49.64l5.91-16.23Z"/>
    <path class="cls-1" d="M322.5,22.94l-5.91,16.23c7.49,6.77,10.55,17.65,6.89,27.72-3.67,10.07-13,16.44-23.1,16.81l-5.91,16.23c18.97,2.27,37.71-8.66,44.53-27.4,6.82-18.73-.5-39.15-16.5-49.61Z"/>
  </g>
  <g>
    <path class="cls-1" d="M308.2,34.12c2.49.9,4.75,2.15,6.75,3.68l10.06-27.63c1.43-3.93-.6-8.28-4.53-9.71-3.93-1.43-8.28.6-9.71,4.53l-10.05,27.61c2.49.12,5.01.62,7.48,1.52Z"/>
    <path class="cls-1" d="M290.7,82.18c-2.47-.9-4.72-2.14-6.71-3.65l-10,27.46c-1.43,3.93.6,8.28,4.53,9.71,3.93,1.43,8.28-.6,9.71-4.53l10-27.48c-2.51-.12-5.04-.62-7.53-1.52Z"/>
  </g>
  <g>
    <path class="cls-2" d="M313.97,127.61h2.7v7.24c-1.97,1.57-4.7,2.36-7.46,2.36-6.05,0-10.5-4-10.5-9.49s4.45-9.49,10.56-9.49c3.12,0,5.77.98,7.57,2.86l-1.75,1.64c-1.63-1.49-3.49-2.15-5.71-2.15-4.56,0-7.85,3-7.85,7.13s3.29,7.13,7.83,7.13c1.66,0,3.21-.34,4.62-1.19v-6.05Z"/>
    <path class="cls-2" d="M324.86,118.44h2.82v16.26h10.67v2.31h-13.49v-18.56Z"/>
    <path class="cls-2" d="M342.8,127.72c0-5.44,4.45-9.49,10.5-9.49s10.44,4.03,10.44,9.49-4.45,9.49-10.44,9.49-10.5-4.06-10.5-9.49ZM360.93,127.72c0-4.11-3.27-7.13-7.63-7.13s-7.69,3.02-7.69,7.13,3.27,7.13,7.69,7.13,7.63-3.02,7.63-7.13Z"/>
    <path class="cls-2" d="M387.81,131.99c0,3.18-2.56,5.01-7.54,5.01h-9.4v-18.56h8.84c4.53,0,7.07,1.8,7.07,4.8,0,2.02-1.1,3.42-2.65,4.14,2.22.58,3.69,2.15,3.69,4.61ZM373.68,120.58v5.94h5.77c2.87,0,4.5-1.01,4.5-2.97s-1.63-2.97-4.5-2.97h-5.77ZM384.97,131.77c0-2.15-1.69-3.1-4.81-3.1h-6.47v6.18h6.47c3.12,0,4.81-.93,4.81-3.08Z"/>
    <path class="cls-2" d="M407.55,132.36h-10.47l-2.17,4.64h-2.9l8.92-18.56h2.79l8.95,18.56h-2.96l-2.17-4.64ZM406.56,130.24l-4.25-9.1-4.25,9.1h8.5Z"/>
    <path class="cls-2" d="M418.41,118.44h2.82v16.26h10.67v2.31h-13.49v-18.56Z"/>
  </g>
</svg>